<?xml version="1.0" standalone="no"?>
<!DOCTYPE svg PUBLIC "-//W3C//DTD SVG 20010904//EN"
 "http://www.w3.org/TR/2001/REC-SVG-20010904/DTD/svg10.dtd">
<svg version="1.0" xmlns="http://www.w3.org/2000/svg"
 width="700.000000pt" height="700.000000pt" viewBox="0 0 700.000000 700.000000"
 preserveAspectRatio="xMidYMid meet">
<metadata>
Created by potrace 1.14, written by Peter Selinger 2001-2017
</metadata>
<g transform="translate(0.000000,700.000000) scale(0.100000,-0.100000)"
fill="#000000" stroke="none">
<path d="M2630 5830 l0 -290 -317 0 c-360 0 -411 -7 -533 -66 -102 -51 -203
-152 -254 -254 -59 -122 -66 -173 -66 -532 l0 -318 -290 0 -290 0 0 -290 0
-290 290 0 290 0 0 -290 0 -290 -290 0 -290 0 0 -290 0 -290 290 0 290 0 0
-317 c0 -360 7 -411 66 -533 50 -101 152 -203 255 -254 121 -59 172 -66 532
-66 l317 0 0 -290 0 -290 290 0 290 0 0 290 0 290 290 0 290 0 0 -290 0 -290
290 0 290 0 0 290 0 290 318 0 c359 0 410 7 532 66 102 51 203 152 254 254 59
122 66 173 66 533 l0 317 290 0 290 0 0 290 0 290 -290 0 -290 0 0 290 0 290
290 0 290 0 0 290 0 290 -290 0 -290 0 0 318 c0 359 -7 410 -66 532 -51 102
-152 203 -254 254 -122 59 -173 66 -532 66 l-318 0 0 290 0 290 -290 0 -290 0
0 -290 0 -290 -290 0 -290 0 0 290 0 290 -290 0 -290 0 0 -290z m2330 -2330
l0 -1460 -1460 0 -1460 0 0 1460 0 1460 1460 0 1460 0 0 -1460z"/>
<path d="M2630 3500 l0 -870 870 0 870 0 0 870 0 870 -870 0 -870 0 0 -870z
m1160 0 l0 -290 -290 0 -290 0 0 290 0 290 290 0 290 0 0 -290z"/>
</g>
</svg>
